<svg width="109" height="22" viewBox="0 0 109 22" fill="none" xmlns="http://www.w3.org/2000/svg">
<path d="M0.660831 5.95211V4.93051H7.79345V5.95211H4.80295V14.4407H3.65133V5.95211H0.660831ZM9.77744 12.8247L13.2137 7.30805H14.4768V14.4407H13.3809V8.92404L9.96319 14.4407H8.68155V7.30805H9.77744V12.8247ZM21.2577 10.3729V11.3945H17.3199V10.3729H21.2577ZM17.5799 7.30805V14.4407H16.484V7.30805H17.5799ZM22.0935 7.30805V14.4407H20.9976V7.30805H22.0935ZM25.0422 9.88991H27.0854C27.9213 9.88991 28.5606 10.102 29.0032 10.5261C29.4459 10.9502 29.6673 11.4873 29.6673 12.1374C29.6673 12.5646 29.5682 12.9532 29.3701 13.303C29.172 13.6497 28.881 13.9268 28.4971 14.1342C28.1132 14.3385 27.6427 14.4407 27.0854 14.4407H24.0949V7.30805H25.1908V13.4191H27.0854C27.5188 13.4191 27.8748 13.3045 28.1535 13.0754C28.4321 12.8464 28.5714 12.5523 28.5714 12.1932C28.5714 11.8155 28.4321 11.5074 28.1535 11.2691C27.8748 11.0307 27.5188 10.9115 27.0854 10.9115H25.0422V9.88991ZM31.3355 14.4407V7.30805H32.4314V10.41H33.1558L35.7191 7.30805H37.1308L34.2517 10.7443L37.1679 14.4407H35.7562L33.4159 11.4316H32.4314V14.4407H31.3355ZM40.9629 14.5893C40.319 14.5893 39.754 14.436 39.268 14.1296C38.7851 13.8231 38.4074 13.3943 38.135 12.8433C37.8656 12.2922 37.731 11.6483 37.731 10.9115C37.731 10.1685 37.8656 9.51997 38.135 8.96583C38.4074 8.41169 38.7851 7.98138 39.268 7.6749C39.754 7.36842 40.319 7.21518 40.9629 7.21518C41.6068 7.21518 42.1703 7.36842 42.6532 7.6749C43.1392 7.98138 43.5169 8.41169 43.7863 8.96583C44.0587 9.51997 44.1949 10.1685 44.1949 10.9115C44.1949 11.6483 44.0587 12.2922 43.7863 12.8433C43.5169 13.3943 43.1392 13.8231 42.6532 14.1296C42.1703 14.436 41.6068 14.5893 40.9629 14.5893ZM40.9629 13.6048C41.4521 13.6048 41.8545 13.4794 42.1703 13.2287C42.486 12.9779 42.7198 12.6482 42.8715 12.2396C43.0231 11.831 43.099 11.3883 43.099 10.9115C43.099 10.4348 43.0231 9.99053 42.8715 9.57879C42.7198 9.16705 42.486 8.83426 42.1703 8.58041C41.8545 8.32656 41.4521 8.19963 40.9629 8.19963C40.4738 8.19963 40.0713 8.32656 39.7556 8.58041C39.4398 8.83426 39.2061 9.16705 39.0544 9.57879C38.9027 9.99053 38.8269 10.4348 38.8269 10.9115C38.8269 11.3883 38.9027 11.831 39.0544 12.2396C39.2061 12.6482 39.4398 12.9779 39.7556 13.2287C40.0713 13.4794 40.4738 13.6048 40.9629 13.6048ZM48.7654 16.8739V4.93051H49.8613V16.8739H48.7654ZM48.7654 14.5893C48.2824 14.5893 47.8429 14.5026 47.4466 14.3292C47.0503 14.1528 46.7098 13.9036 46.425 13.5816C46.1402 13.2565 45.9204 12.868 45.7656 12.416C45.6108 11.9641 45.5334 11.4626 45.5334 10.9115C45.5334 10.3543 45.6108 9.84967 45.7656 9.39769C45.9204 8.94261 46.1402 8.55255 46.425 8.22749C46.7098 7.90244 47.0503 7.65323 47.4466 7.47987C47.8429 7.30341 48.2824 7.21518 48.7654 7.21518H49.0997V14.5893H48.7654ZM48.7654 13.6048H48.9511V8.19963H48.7654C48.4001 8.19963 48.0828 8.27393 47.8134 8.42253C47.5441 8.56803 47.3212 8.7677 47.1448 9.02155C46.9714 9.27231 46.8414 9.56022 46.7547 9.88527C46.6711 10.2103 46.6293 10.5524 46.6293 10.9115C46.6293 11.3883 46.7052 11.831 46.8569 12.2396C47.0085 12.6482 47.2423 12.9779 47.558 13.2287C47.8738 13.4794 48.2763 13.6048 48.7654 13.6048ZM49.8613 14.5893H49.5269V7.21518H49.8613C50.3442 7.21518 50.7838 7.30341 51.1801 7.47987C51.5763 7.65323 51.9169 7.90244 52.2017 8.22749C52.4865 8.55255 52.7063 8.94261 52.8611 9.39769C53.0159 9.84967 53.0933 10.3543 53.0933 10.9115C53.0933 11.4626 53.0159 11.9641 52.8611 12.416C52.7063 12.868 52.4865 13.2565 52.2017 13.5816C51.9169 13.9036 51.5763 14.1528 51.1801 14.3292C50.7838 14.5026 50.3442 14.5893 49.8613 14.5893ZM49.8613 13.6048C50.2297 13.6048 50.547 13.5336 50.8132 13.3912C51.0826 13.2457 51.3039 13.0476 51.4773 12.7968C51.6537 12.543 51.7837 12.2551 51.8673 11.9331C51.954 11.6081 51.9974 11.2675 51.9974 10.9115C51.9974 10.4348 51.9215 9.99053 51.7698 9.57879C51.6181 9.16705 51.3844 8.83426 51.0686 8.58041C50.7529 8.32656 50.3504 8.19963 49.8613 8.19963H49.6755V13.6048H49.8613ZM57.6661 16.8739V4.93051H58.762V16.8739H57.6661ZM57.6661 14.5893C57.1831 14.5893 56.7435 14.5026 56.3473 14.3292C55.951 14.1528 55.6105 13.9036 55.3257 13.5816C55.0409 13.2565 54.8211 12.868 54.6663 12.416C54.5115 11.9641 54.4341 11.4626 54.4341 10.9115C54.4341 10.3543 54.5115 9.84967 54.6663 9.39769C54.8211 8.94261 55.0409 8.55255 55.3257 8.22749C55.6105 7.90244 55.951 7.65323 56.3473 7.47987C56.7435 7.30341 57.1831 7.21518 57.6661 7.21518H58.0004V14.5893H57.6661ZM57.6661 13.6048H57.8518V8.19963H57.6661C57.3008 8.19963 56.9835 8.27393 56.7141 8.42253C56.4448 8.56803 56.2219 8.7677 56.0454 9.02155C55.8721 9.27231 55.7421 9.56022 55.6554 9.88527C55.5718 10.2103 55.53 10.5524 55.53 10.9115C55.53 11.3883 55.6058 11.831 55.7575 12.2396C55.9092 12.6482 56.143 12.9779 56.4587 13.2287C56.7745 13.4794 57.1769 13.6048 57.6661 13.6048ZM58.762 14.5893H58.4276V7.21518H58.762C59.2449 7.21518 59.6845 7.30341 60.0808 7.47987C60.477 7.65323 60.8175 7.90244 61.1024 8.22749C61.3872 8.55255 61.607 8.94261 61.7618 9.39769C61.9165 9.84967 61.9939 10.3543 61.9939 10.9115C61.9939 11.4626 61.9165 11.9641 61.7618 12.416C61.607 12.868 61.3872 13.2565 61.1024 13.5816C60.8175 13.9036 60.477 14.1528 60.0808 14.3292C59.6845 14.5026 59.2449 14.5893 58.762 14.5893ZM58.762 13.6048C59.1304 13.6048 59.4477 13.5336 59.7139 13.3912C59.9832 13.2457 60.2046 13.0476 60.378 12.7968C60.5544 12.543 60.6844 12.2551 60.768 11.9331C60.8547 11.6081 60.898 11.2675 60.898 10.9115C60.898 10.4348 60.8222 9.99053 60.6705 9.57879C60.5188 9.16705 60.2851 8.83426 59.9693 8.58041C59.6535 8.32656 59.2511 8.19963 58.762 8.19963H58.5762V13.6048H58.762Z" fill="black"/>
<rect x="68.3184" y="0.714111" width="40.6824" height="20.3412" rx="7.26471" fill="black"/>
<path d="M76.3018 15.8936V6.38339H80.2303C80.9423 6.38339 81.5568 6.5227 82.0738 6.80132C82.5939 7.07684 82.9948 7.46226 83.2765 7.95759C83.5582 8.44981 83.6991 9.02253 83.6991 9.67573C83.6991 10.332 83.5551 10.9063 83.2672 11.3985C82.9824 11.8876 82.5753 12.2669 82.046 12.5362C81.5166 12.8055 80.8882 12.9402 80.1607 12.9402H77.7367V11.1292H79.7334C80.0802 11.1292 80.3696 11.0688 80.6018 10.9481C80.8371 10.8274 81.0151 10.6586 81.1358 10.4419C81.2566 10.2221 81.3169 9.96673 81.3169 9.67573C81.3169 9.38163 81.2566 9.12778 81.1358 8.91417C81.0151 8.69747 80.8371 8.5303 80.6018 8.41266C80.3665 8.29502 80.0771 8.2362 79.7334 8.2362H78.6004V15.8936H76.3018ZM85.74 15.8936H83.2696L86.4783 6.38339H89.5385L92.7472 15.8936H90.2768L88.0432 8.77951H87.9689L85.74 15.8936ZM85.4103 12.1508H90.574V13.8968H85.4103V12.1508ZM92.327 6.38339H94.8949L96.9056 10.363H96.9892L98.9999 6.38339H101.568L98.0897 12.7173V15.8936H95.8051V12.7173L92.327 6.38339Z" fill="white"/>
</svg>
